<svg width="168" height="171" viewBox="0 0 168 171" fill="none" xmlns="http://www.w3.org/2000/svg">
<path opacity="0.1" d="M11.6713 79.9912C15.9003 74.8857 21.6647 77.5177 25.1311 81.7032C28.5975 85.8888 31.6535 91.569 36.5979 91.9598C40.7671 92.2888 45.2632 88.5375 48.4523 83.6743C51.6414 78.8111 53.7695 72.9342 55.8433 67.1754C58.4489 59.9405 61.0552 52.7008 63.6624 45.4563C64.6163 42.8075 65.6514 40.0195 67.3672 38.1812C69.6331 35.7571 72.6307 35.6282 74.7676 37.1121C76.9045 38.5959 78.31 41.4165 79.3537 44.4224C82.6977 54.0484 82.8788 65.8979 85.2814 76.2569C85.7707 78.3659 86.3928 80.4877 87.6237 81.7724C89.3988 83.6216 92.074 83.3665 94.5257 82.4945C102.523 79.6568 109.601 71.389 116.43 63.7348C119.751 60.0153 123.627 56.1244 127.361 56.6227C131.292 57.1361 133.43 62.3374 134.436 67.5081C137.654 84.1404 133.806 104.639 139.017 119.79C139.665 121.668 140.456 123.456 141.556 124.81C141.919 125.256 142.315 125.656 142.739 126.008C149.352 131.518 148.116 146.192 140.31 152.997C140.142 153.141 139.972 153.285 139.8 153.428C138.658 154.375 137.423 155.228 136.21 155.276C135.082 155.318 134.105 154.659 133.179 153.981C127.267 149.64 121.798 143.961 114.921 142.323C108.233 140.72 100.836 143.128 93.8734 142.842C89.192 142.651 84.7526 141.249 80.3453 139.839C65.6668 135.141 51.0227 130.326 36.413 125.396C29.1567 122.967 21.8921 120.558 14.6509 118.078C9.07375 116.161 5.68639 114.323 7.38619 105.342C8.8749 97.4768 6.24807 86.5406 11.6713 79.9912Z" fill="#FF6B6B"/>
<path d="M42.9326 119.359C42.9326 119.359 45.8664 119.472 47.1806 121.815C47.1806 121.815 45.7351 122.551 43.3059 120.656L42.9326 119.359Z" fill="#FF6B6B"/>
<path d="M42.6341 119.25C42.6341 119.25 40.3738 121.132 40.7747 123.793C40.7747 123.793 42.3733 123.491 43.1307 120.506L42.6341 119.25Z" fill="#FF6B6B"/>
<path d="M41.7279 115.257C41.7279 115.257 43.2803 113.394 47.2654 117.217C47.2654 117.217 46.382 118.503 44.3903 117.992C42.3987 117.48 42.0344 116.46 41.7279 115.257Z" fill="#FF6B6B"/>
<path d="M41.4654 115.048C41.4654 115.048 39.1545 114.312 37.8584 119.677C37.8584 119.677 39.296 120.286 40.6987 118.781C42.1013 117.275 41.85 116.235 41.4654 115.048Z" fill="#FF6B6B"/>
<path d="M40.9469 110.463C40.9469 110.463 42.9869 107.04 47.2975 110.62C47.2975 110.62 45.5298 113.781 41.1829 111.82L40.9469 110.463Z" fill="#FF6B6B"/>
<path d="M40.5448 104.665C40.5448 104.665 43.7851 101.438 47.5445 105.768C47.5445 105.768 45.3007 108.955 40.6627 106.069L40.5448 104.665Z" fill="#FF6B6B"/>
<path d="M41.047 99.3212C41.047 99.3212 44.6444 96.4792 48.375 100.766C48.375 100.766 45.0098 103.219 40.8739 100.193L41.047 99.3212Z" fill="#FF6B6B"/>
<path d="M41.595 94.1419C41.595 94.1419 45.2596 91.1585 48.8089 95.3676C48.8089 95.3676 44.8448 97.8599 41.4294 94.9778L41.595 94.1419Z" fill="#FF6B6B"/>
<path d="M42.7508 89.6779C42.7508 89.6779 46.7704 85.6961 50.1056 89.5896C50.1056 89.5896 45.9861 92.88 42.5798 90.5505L42.7508 89.6779Z" fill="#FF6B6B"/>
<path d="M44.5238 84.544C44.5238 84.544 48.7142 80.6371 51.8591 84.8973C51.8591 84.8973 47.1681 88.075 44.347 85.388L44.5238 84.544Z" fill="#FF6B6B"/>
<path d="M46.545 80.0425C46.545 80.0425 51.3027 76.5324 54.3803 78.9153C54.3803 78.9153 49.4077 82.6575 46.1482 81.1464L46.545 80.0425Z" fill="#FF6B6B"/>
<path d="M48.7938 75.8398C48.7938 75.8398 54.3469 71.4898 56.6205 73.7561C56.6205 73.7561 52.4949 77.1616 48.2748 76.7628L48.7938 75.8398Z" fill="#FF6B6B"/>
<path d="M51.7901 71.0427C51.7901 71.0427 56.584 67.5401 59.2523 69.1712C59.2523 69.1712 54.9963 72.9459 50.9886 72.274L51.7901 71.0427Z" fill="#FF6B6B"/>
<path d="M54.5339 66.5439C54.5339 66.5439 59.7084 63.3049 61.4651 64.3998C61.4651 64.3998 57.4131 68.3348 54.163 67.4167L54.5339 66.5439Z" fill="#FF6B6B"/>
<path d="M57.1624 62.4071C57.1624 62.4071 61.8888 58.2509 63.8627 59.0381C63.8627 59.0381 60.7228 62.9547 57.0651 62.9042L57.1624 62.4071Z" fill="#FF6B6B"/>
<path d="M60.2495 56.7429C60.2495 56.7429 64.3117 53.6414 66.1048 54.0052C66.1048 54.0052 62.4948 58.5031 59.8684 57.9476L60.2495 56.7429Z" fill="#FF6B6B"/>
<path d="M62.1659 52.943L66.9171 45.7532C66.9171 45.7532 65.6875 52.856 61.4794 54.3151L62.1659 52.943Z" fill="#FF6B6B"/>
<path d="M65.1698 44.5732C65.1698 44.5732 66.9904 38.1474 66.7532 37.5495C66.7532 37.5495 67.9768 43.4325 64.5794 47.4553L65.1698 44.5732Z" fill="#FF6B6B"/>
<path d="M40.8337 110.35C40.8337 110.35 37.9111 107.631 34.7614 112.254C34.7614 112.254 37.3343 114.803 40.9685 111.715L40.8337 110.35Z" fill="#FF6B6B"/>
<path d="M40.4785 104.434C40.4785 104.434 36.7654 101.767 33.745 106.645C33.745 106.645 36.4723 109.43 40.5875 105.838L40.4785 104.434Z" fill="#FF6B6B"/>
<path d="M40.7955 99.5974C40.7955 99.5974 38.5452 95.6016 33.4664 98.1567C33.4664 98.1567 35.6463 101.702 40.6208 100.476L40.7955 99.5974Z" fill="#FF6B6B"/>
<path d="M41.4942 94.1239C41.4942 94.1239 39.2392 89.9698 34.3556 92.5166C34.3556 92.5166 37.0752 96.3282 41.3354 94.9594L41.4942 94.1239Z" fill="#FF6B6B"/>
<path d="M42.7254 89.8059C42.7254 89.8059 41.663 84.2512 36.7122 85.5742C36.7122 85.5742 38.2483 90.6181 42.3734 90.6254L42.7254 89.8059Z" fill="#FF6B6B"/>
<path d="M44.7789 84.572C44.7789 84.572 43.7469 78.929 38.6838 80.4531C38.6838 80.4531 40.542 85.8033 44.4114 85.3402L44.7789 84.572Z" fill="#FF6B6B"/>
<path d="M46.9798 80.1545C46.9798 80.1545 47.2942 74.2547 43.6106 72.9938C43.6106 72.9938 43.2215 79.2058 46.2712 81.0895L46.9798 80.1545Z" fill="#FF6B6B"/>
<path d="M48.8889 75.8699C48.8889 75.8699 49.9338 68.895 46.8438 68.0333C46.8438 68.0333 45.9149 73.3014 48.3429 76.7766L48.8889 75.8699Z" fill="#FF6B6B"/>
<path d="M52.1559 70.9095C52.1559 70.9095 52.3515 64.9757 49.4954 63.6849C49.4954 63.6849 48.7692 69.3284 51.5818 72.2645L52.1559 70.9095Z" fill="#FF6B6B"/>
<path d="M54.8812 66.6549C54.8812 66.6549 56.0379 60.662 54.3727 59.4187C54.3727 59.4187 52.1692 64.6169 54.1988 67.3163L54.8812 66.6549Z" fill="#FF6B6B"/>
<path d="M57.3162 62.3697C57.3162 62.3697 58.2758 56.1489 56.5515 54.9077C56.5515 54.9077 54.9411 59.6608 56.9515 62.7166L57.3162 62.3697Z" fill="#FF6B6B"/>
<path d="M60.4182 57.2866C60.4182 57.2866 61.3943 52.2692 60.2749 50.8241C60.2749 50.8241 57.8452 56.0538 59.5118 58.1552L60.4182 57.2866Z" fill="#FF6B6B"/>
<path d="M62.048 52.6622L62.3791 44.0522C62.3791 44.0522 59.2417 50.5405 61.8141 54.1803L62.048 52.6622Z" fill="#FF6B6B"/>
<path d="M63.9503 44.4148C63.9503 44.4148 61.676 38.1291 61.8704 37.521C61.8704 37.521 61.0694 43.4767 64.745 47.2481L63.9503 44.4148Z" fill="#FF6B6B"/>
<path d="M64.6804 42.8388C64.6804 42.8388 63.0653 34.2351 61.7516 33.297C61.7516 33.297 65.85 36.5126 64.9949 42.6537L64.6804 42.8388Z" fill="#FF6B6B"/>
<path d="M59.8451 57.984L59.6497 57.8755C64.0709 49.6295 65.8485 44.16 64.6521 42.4743L64.8406 42.3407C66.1006 44.1243 64.3765 49.5363 59.8451 57.984Z" fill="#444053"/>
<path d="M48.3822 77.0656L48.0816 76.8885C48.5266 76.141 48.9945 75.3839 49.4757 74.6439C53.673 68.1971 57.3437 62.1571 59.8629 57.4566L60.171 57.3708C57.6464 62.0833 53.9635 68.3783 49.7687 74.8325C49.2901 75.571 48.824 76.3218 48.3822 77.0656Z" fill="#444053"/>
<path d="M45.6426 126.718C45.6083 126.662 42.2152 120.889 40.8286 111.902C40.0149 106.641 40.0398 101.284 40.9025 96.0311C41.9878 89.4667 44.789 82.4482 48.4369 76.2921L48.631 76.6405C40.4381 90.4571 40.0176 103.599 41.28 111.81C42.6518 120.71 46.0042 126.424 46.0385 126.481L45.6426 126.718Z" fill="#444053"/>
<path d="M57.1277 104.151C57.1277 104.151 58.9064 104.217 59.698 105.637C59.698 105.637 58.8236 106.076 57.3555 104.935L57.1277 104.151Z" fill="#FF6B6B"/>
<path d="M56.9494 104.087C56.9494 104.087 55.5844 105.226 55.8273 106.834C55.8273 106.834 56.7943 106.644 57.2575 104.848L56.9494 104.087Z" fill="#FF6B6B"/>
<path d="M56.4024 101.671C56.4024 101.671 57.3394 100.545 59.7448 102.856C59.7448 102.856 59.2115 103.631 58.0077 103.322C56.8039 103.013 56.5911 102.399 56.4024 101.671Z" fill="#FF6B6B"/>
<path d="M56.2429 101.545C56.2429 101.545 54.8441 101.101 54.061 104.342C54.061 104.342 54.9302 104.71 55.7778 103.8C56.6254 102.891 56.475 102.263 56.2429 101.545Z" fill="#FF6B6B"/>
<path d="M55.924 98.7718C55.924 98.7718 57.1672 96.7046 59.7683 98.8633C59.7683 98.8633 58.7012 100.776 56.0733 99.5887L55.924 98.7718Z" fill="#FF6B6B"/>
<path d="M55.6862 95.2681C55.6862 95.2681 57.6424 93.3223 59.9175 95.9348C59.9175 95.9348 58.5593 97.8612 55.7577 96.1158L55.6862 95.2681Z" fill="#FF6B6B"/>
<path d="M55.9883 92.0371C55.9883 92.0371 58.1642 90.3186 60.4181 92.9097C60.4181 92.9097 58.3878 94.3866 55.8852 92.5641L55.9883 92.0371Z" fill="#FF6B6B"/>
<path d="M56.3199 88.906C56.3199 88.906 58.5367 87.102 60.6814 89.6481C60.6814 89.6481 58.286 91.1551 56.2203 89.4115L56.3199 88.906Z" fill="#FF6B6B"/>
<path d="M57.0207 86.2063C57.0207 86.2063 59.4607 83.8041 61.4651 86.1532C61.4651 86.1532 58.9742 88.142 56.9162 86.7306L57.0207 86.2063Z" fill="#FF6B6B"/>
<path d="M58.0857 83.1033C58.0857 83.1033 60.6249 80.7412 62.5215 83.3084C62.5215 83.3084 59.6851 85.2294 57.9783 83.6045L58.0857 83.1033Z" fill="#FF6B6B"/>
<path d="M59.3131 80.383C59.3131 80.383 62.1877 78.2612 64.049 79.703C64.049 79.703 61.0426 81.9646 59.0777 81.0519L59.3131 80.383Z" fill="#FF6B6B"/>
<path d="M60.6723 77.8416C60.6723 77.8416 64.0283 75.2133 65.4042 76.5812C65.4042 76.5812 62.91 78.641 60.3588 78.3998L60.6723 77.8416Z" fill="#FF6B6B"/>
<path d="M62.4833 74.9453C62.4833 74.9453 65.3815 72.8276 66.9984 73.8155C66.9984 73.8155 64.4268 76.0971 62.0052 75.6907L62.4833 74.9453Z" fill="#FF6B6B"/>
<path d="M64.1428 72.2217C64.1428 72.2217 67.2697 70.2641 68.3319 70.9259C68.3319 70.9259 65.8849 73.3038 63.9182 72.7498L64.1428 72.2217Z" fill="#FF6B6B"/>
<path d="M65.7311 69.7215C65.7311 69.7215 68.5891 67.2091 69.7828 67.6816C69.7828 67.6816 67.8863 70.0498 65.6735 70.0205L65.7311 69.7215Z" fill="#FF6B6B"/>
<path d="M67.6005 66.2975C67.6005 66.2975 70.0563 64.4228 71.1406 64.6415C71.1406 64.6415 68.9568 67.3615 67.3711 67.0197L67.6005 66.2975Z" fill="#FF6B6B"/>
<path d="M68.7578 63.9985L71.6256 59.6564C71.6256 59.6564 70.88 63.9474 68.3313 64.8362L68.7578 63.9985Z" fill="#FF6B6B"/>
<path d="M70.5737 58.9389C70.5737 58.9389 71.6729 55.0548 71.5295 54.693C71.5295 54.693 72.2699 58.2483 70.2145 60.6817L70.5737 58.9389Z" fill="#FF6B6B"/>
<path d="M55.8588 98.7049C55.8588 98.7049 54.0946 97.0601 52.1831 99.8531C52.1831 99.8531 53.7397 101.393 55.9365 99.5295L55.8588 98.7049Z" fill="#FF6B6B"/>
<path d="M55.6497 95.1191C55.6497 95.1191 53.403 93.5067 51.5778 96.4553C51.5778 96.4553 53.2262 98.1387 55.7138 95.9694L55.6497 95.1191Z" fill="#FF6B6B"/>
<path d="M55.8362 92.2029C55.8362 92.2029 54.4779 89.7889 51.4063 91.3303C51.4063 91.3303 52.7233 93.4795 55.7326 92.732L55.8362 92.2029Z" fill="#FF6B6B"/>
<path d="M56.26 88.8945C56.26 88.8945 54.8959 86.3847 51.9438 87.9244C51.9438 87.9244 53.5881 90.2264 56.1605 89.4L56.26 88.8945Z" fill="#FF6B6B"/>
<path d="M57.0065 86.2765C57.0065 86.2765 56.3638 82.9181 53.37 83.7169C53.37 83.7169 54.2999 86.7661 56.793 86.7717L57.0065 86.2765Z" fill="#FF6B6B"/>
<path d="M58.246 83.1171C58.246 83.1171 57.6221 79.7053 54.5552 80.626C54.5552 80.626 55.6777 83.8615 58.02 83.5752L58.246 83.1171Z" fill="#FF6B6B"/>
<path d="M59.575 80.4531C59.575 80.4531 59.7655 76.8846 57.5376 76.1237C57.5376 76.1237 57.3019 79.8777 59.1457 81.0162L59.575 80.4531Z" fill="#FF6B6B"/>
<path d="M60.7304 77.8594C60.7304 77.8594 61.3658 73.6444 59.4859 73.1182C59.4859 73.1182 58.9241 76.3044 60.3908 78.4061L60.7304 77.8594Z" fill="#FF6B6B"/>
<path d="M62.7037 74.8606C62.7037 74.8606 62.823 71.273 61.0968 70.4917C61.0968 70.4917 60.6591 73.9019 62.359 75.6777L62.7037 74.8606Z" fill="#FF6B6B"/>
<path d="M64.3515 72.2889C64.3515 72.2889 65.0482 68.6584 64.0464 67.9139C64.0464 67.9139 62.7124 71.0571 63.9392 72.6881L64.3515 72.2889Z" fill="#FF6B6B"/>
<path d="M65.8251 69.6974C65.8251 69.6974 66.406 65.9371 65.3633 65.1861C65.3633 65.1861 64.3868 68.068 65.6048 69.9078L65.8251 69.6974Z" fill="#FF6B6B"/>
<path d="M67.6992 66.6249C67.6992 66.6249 68.2874 63.5918 67.6229 62.7199C67.6229 62.7199 66.1534 65.8828 67.1606 67.1519L67.6992 66.6249Z" fill="#FF6B6B"/>
<path d="M68.6907 63.83L68.8908 58.625C68.8908 58.625 66.9929 62.5488 68.5479 64.7483L68.6907 63.83Z" fill="#FF6B6B"/>
<path d="M69.8357 58.8444C69.8357 58.8444 68.4617 55.0476 68.579 54.6771C68.579 54.6771 68.0928 58.2764 70.3156 60.556L69.8357 58.8444Z" fill="#FF6B6B"/>
<path d="M70.2716 57.888C70.2716 57.888 69.2942 52.6862 68.4993 52.1252C68.4993 52.1252 70.9782 54.0693 70.4591 57.7833L70.2716 57.888Z" fill="#FF6B6B"/>
<path d="M67.3533 67.0441L67.2298 66.9774C69.912 61.995 70.9783 58.6859 70.2542 57.6678L70.3681 57.586C71.136 58.6675 70.0929 61.9402 67.3533 67.0441Z" fill="#444053"/>
<path d="M60.4242 78.5834L60.2424 78.4741C60.5115 78.023 60.7954 77.5669 61.0837 77.1278C63.6173 73.2283 65.8394 69.5776 67.3619 66.7365L67.549 66.6834C66.0227 69.5302 63.7964 73.3391 61.2596 77.2423C60.9707 77.6835 60.6912 78.1318 60.4242 78.5834Z" fill="#444053"/>
<path d="M58.7669 108.6C58.747 108.566 56.6955 105.077 55.8567 99.6429C55.3657 96.4626 55.3808 93.2247 55.9013 90.0491C56.5542 86.079 58.2523 81.8366 60.4598 78.1148L60.5762 78.3256C55.6234 86.6784 55.3693 94.6241 56.1317 99.5886C56.9608 104.975 58.9877 108.422 59.0098 108.457L58.7669 108.6Z" fill="#444053"/>
<path d="M62.2618 120.764C61.6986 120.715 61.1319 120.724 60.5705 120.791C48.061 122.276 40.3346 151.866 40.3346 151.866L37.0077 150.974C37.0077 150.974 39.357 138.017 39.6381 118.708C39.8857 101.334 60.6599 91.2703 64.8262 89.4227C65.2942 89.218 65.5516 89.1119 65.5516 89.1119C80.867 99.9069 62.2618 120.764 62.2618 120.764Z" fill="#AFC0E0"/>
<path opacity="0.2" d="M66.6501 89.9563C66.3066 89.6712 65.9483 89.391 65.561 89.1188C65.561 89.1188 65.3077 89.2261 64.8355 89.4297C60.6692 91.2772 39.895 101.341 39.6474 118.715C39.3663 138.024 37.0077 150.974 37.0077 150.974L38.8785 151.475C38.8785 151.475 41.2382 138.521 41.5089 119.209C41.753 101.915 62.3492 91.8621 66.6501 89.9563Z" fill="white"/>
<path d="M117.309 139.524C107.887 156.384 103.461 168.78 103.461 168.78L100.128 167.887C100.128 167.887 108.609 137.072 97.4382 130.385C97.1973 130.236 96.9475 130.102 96.69 129.984C96.69 129.984 90.9997 102.617 109.666 100.932C109.666 100.932 109.803 101.106 110.047 101.438C112.52 104.802 125.878 124.178 117.309 139.524Z" fill="#AFC0E0"/>
<path opacity="0.1" d="M62.2618 120.764C61.6986 120.715 61.1318 120.724 60.5704 120.791C61.2065 110.245 62.6286 99.7612 64.825 89.4269C65.293 89.2222 65.5505 89.116 65.5505 89.116C80.867 99.9069 62.2618 120.764 62.2618 120.764Z" fill="black"/>
<path opacity="0.1" d="M110.052 101.444C106.636 111.42 102.419 121.103 97.4409 130.399C97.2001 130.25 96.9502 130.116 96.6927 129.999C96.6927 129.999 91.0024 102.632 109.669 100.946C109.665 100.936 109.802 101.11 110.052 101.444Z" fill="black"/>
<path d="M94.5756 134.322C92.1622 138.636 89.5148 143.016 86.6334 147.462C86.6334 147.462 77.0614 153.253 61.0747 140.614C61.0747 140.614 60.6329 135.039 60.9658 125.853C61.6923 105.652 66.1649 67.9853 87.3177 33.7324C93.645 23.4268 101.249 13.9621 109.95 5.56343C109.95 5.56343 116.558 19.0798 117.944 41.9319C119.329 64.784 115.482 96.9737 94.5756 134.322Z" fill="#E3E8F4"/>
<path d="M90.9668 82.4854C99.2546 84.7061 107.773 79.7877 109.994 71.5C112.215 63.2122 107.296 54.6934 99.0087 52.4727C90.7209 50.252 82.2021 55.1703 79.9814 63.4581C77.7607 71.7459 82.679 80.2647 90.9668 82.4854Z" fill="#AFC0E0"/>
<path d="M105.628 70.339C105.088 72.3544 103.987 74.1749 102.452 75.5889C100.918 77.0029 99.014 77.9522 96.9614 78.3264C94.9089 78.7006 92.7922 78.4843 90.8577 77.7026C88.9232 76.921 87.2505 75.6061 86.034 73.911C85.441 73.0806 84.9651 72.1726 84.6194 71.2125C84.4637 70.7833 84.3353 70.3446 84.2349 69.8992C83.8449 68.1619 83.8827 66.3558 84.345 64.6363C84.368 64.5504 84.3904 64.4666 84.4129 64.3828C85.0773 62.1216 86.4484 60.1326 88.3254 58.7073C90.2024 57.282 92.4865 56.4953 94.8431 56.4626C95.7412 56.4562 96.637 56.556 97.5117 56.76L97.8302 56.8453C99.2283 57.2191 100.539 57.8646 101.688 58.7451C102.836 59.6255 103.8 60.7237 104.524 61.9768C105.249 63.2298 105.719 64.6133 105.908 66.0481C106.097 67.483 106.002 68.941 105.628 70.339Z" fill="#FF6B6B"/>
<path d="M117.942 41.9313C98.7315 45.5208 87.3088 33.7233 87.3088 33.7233C93.6395 23.4203 101.247 13.9588 109.95 5.56342C109.95 5.56342 116.558 19.0798 117.942 41.9313Z" fill="#AFC0E0"/>
<path d="M94.5755 134.322C92.9396 137.243 91.1986 140.193 89.3523 143.172C88.4744 144.594 87.5679 146.022 86.6329 147.455C86.6329 147.455 77.0609 153.246 61.0741 140.607C61.0741 140.607 60.9305 138.797 60.8606 135.538C60.8146 133.078 60.8156 129.798 60.959 125.844C60.959 125.844 66.9184 130.519 76.4694 133.079C82.3643 134.68 88.5171 135.102 94.5755 134.322Z" fill="#AFC0E0"/>
<path d="M89.3524 143.172C88.4744 144.594 87.568 146.022 86.633 147.455C86.633 147.455 77.0609 153.246 61.0742 140.607C61.0742 140.607 60.9305 138.797 60.8607 135.538C60.8586 135.537 77.8616 145.774 89.3524 143.172Z" fill="#E3E8F4"/>
<path opacity="0.2" d="M94.8535 56.4496L94.8259 56.4602L84.4212 64.3693C84.3987 64.4531 84.3763 64.5369 84.3533 64.6228C83.891 66.3423 83.8532 68.1483 84.2432 69.8857L97.5263 56.7481L94.8535 56.4496Z" fill="white"/>
<path opacity="0.2" d="M94.9075 66.1193L86.0364 73.9027C85.4434 73.0722 84.9675 72.1642 84.6218 71.2041L94.3328 65.13L94.9075 66.1193Z" fill="white"/>
<path opacity="0.2" d="M65.1192 141.693C65.1192 141.693 64.6779 136.116 65.0103 126.932C65.7373 106.73 70.21 69.0625 91.3627 34.8095C97.0664 25.5361 103.803 16.9392 111.443 9.18343C110.558 6.81526 109.943 5.56384 109.943 5.56384C101.242 13.9594 93.6373 23.4208 87.3089 33.7233C66.1562 67.9762 61.6835 105.643 60.9565 125.846C60.6241 135.03 61.0654 140.607 61.0654 140.607C67.3825 145.598 72.6964 147.713 76.815 148.449C73.4452 147.265 69.5277 145.176 65.1192 141.693Z" fill="white"/>
</svg>
